G04 EAGLE Gerber RS-274X export*
G75*
%MOMM*%
%FSLAX34Y34*%
%LPD*%
%IN*%
%IPPOS*%
%AMOC8*
5,1,8,0,0,1.08239X$1,22.5*%
G01*
%ADD10C,0.254000*%


D10*
X0Y231000D02*
X114Y228385D01*
X456Y225791D01*
X1022Y223235D01*
X1809Y220739D01*
X2811Y218321D01*
X4019Y216000D01*
X5425Y213793D01*
X7019Y211716D01*
X8787Y209787D01*
X10716Y208019D01*
X12793Y206425D01*
X15000Y205019D01*
X17321Y203811D01*
X19739Y202809D01*
X22235Y202022D01*
X24791Y201456D01*
X27385Y201114D01*
X30000Y201000D01*
X530000Y201000D01*
X532615Y201114D01*
X535209Y201456D01*
X537765Y202022D01*
X540261Y202809D01*
X542679Y203811D01*
X545000Y205019D01*
X547207Y206425D01*
X549284Y208019D01*
X551213Y209787D01*
X552981Y211716D01*
X554575Y213793D01*
X555981Y216000D01*
X557189Y218321D01*
X558191Y220739D01*
X558978Y223235D01*
X559544Y225791D01*
X559886Y228385D01*
X560000Y231000D01*
X560000Y820000D01*
X559886Y822615D01*
X559544Y825209D01*
X558978Y827765D01*
X558191Y830261D01*
X557189Y832679D01*
X555981Y835000D01*
X554575Y837207D01*
X552981Y839284D01*
X551213Y841213D01*
X549284Y842981D01*
X547207Y844575D01*
X545000Y845981D01*
X542679Y847189D01*
X540261Y848191D01*
X537765Y848978D01*
X535209Y849544D01*
X532615Y849886D01*
X530000Y850000D01*
X30000Y850000D01*
X27385Y849886D01*
X24791Y849544D01*
X22235Y848978D01*
X19739Y848191D01*
X17321Y847189D01*
X15000Y845981D01*
X12793Y844575D01*
X10716Y842981D01*
X8787Y841213D01*
X7019Y839284D01*
X5425Y837207D01*
X4019Y835000D01*
X2811Y832679D01*
X1809Y830261D01*
X1022Y827765D01*
X456Y825209D01*
X114Y822615D01*
X0Y820000D01*
X0Y231000D01*
X540000Y815759D02*
X539930Y814779D01*
X539790Y813807D01*
X539581Y812847D01*
X539305Y811905D01*
X538961Y810985D01*
X538553Y810091D01*
X538083Y809229D01*
X537552Y808403D01*
X536963Y807617D01*
X536320Y806875D01*
X535625Y806180D01*
X534883Y805537D01*
X534097Y804948D01*
X533271Y804417D01*
X532409Y803947D01*
X531515Y803539D01*
X530595Y803195D01*
X529653Y802919D01*
X528693Y802710D01*
X527721Y802570D01*
X526741Y802500D01*
X525759Y802500D01*
X524779Y802570D01*
X523807Y802710D01*
X522847Y802919D01*
X521905Y803195D01*
X520985Y803539D01*
X520091Y803947D01*
X519229Y804417D01*
X518403Y804948D01*
X517617Y805537D01*
X516875Y806180D01*
X516180Y806875D01*
X515537Y807617D01*
X514948Y808403D01*
X514417Y809229D01*
X513947Y810091D01*
X513539Y810985D01*
X513195Y811905D01*
X512919Y812847D01*
X512710Y813807D01*
X512570Y814779D01*
X512500Y815759D01*
X512500Y816741D01*
X512570Y817721D01*
X512710Y818693D01*
X512919Y819653D01*
X513195Y820595D01*
X513539Y821515D01*
X513947Y822409D01*
X514417Y823271D01*
X514948Y824097D01*
X515537Y824883D01*
X516180Y825625D01*
X516875Y826320D01*
X517617Y826963D01*
X518403Y827552D01*
X519229Y828083D01*
X520091Y828553D01*
X520985Y828961D01*
X521905Y829305D01*
X522847Y829581D01*
X523807Y829790D01*
X524779Y829930D01*
X525759Y830000D01*
X526741Y830000D01*
X527721Y829930D01*
X528693Y829790D01*
X529653Y829581D01*
X530595Y829305D01*
X531515Y828961D01*
X532409Y828553D01*
X533271Y828083D01*
X534097Y827552D01*
X534883Y826963D01*
X535625Y826320D01*
X536320Y825625D01*
X536963Y824883D01*
X537552Y824097D01*
X538083Y823271D01*
X538553Y822409D01*
X538961Y821515D01*
X539305Y820595D01*
X539581Y819653D01*
X539790Y818693D01*
X539930Y817721D01*
X540000Y816741D01*
X540000Y815759D01*
X47500Y815759D02*
X47430Y814779D01*
X47290Y813807D01*
X47081Y812847D01*
X46805Y811905D01*
X46461Y810985D01*
X46053Y810091D01*
X45583Y809229D01*
X45052Y808403D01*
X44463Y807617D01*
X43820Y806875D01*
X43125Y806180D01*
X42383Y805537D01*
X41597Y804948D01*
X40771Y804417D01*
X39909Y803947D01*
X39015Y803539D01*
X38095Y803195D01*
X37153Y802919D01*
X36193Y802710D01*
X35221Y802570D01*
X34241Y802500D01*
X33259Y802500D01*
X32279Y802570D01*
X31307Y802710D01*
X30347Y802919D01*
X29405Y803195D01*
X28485Y803539D01*
X27591Y803947D01*
X26729Y804417D01*
X25903Y804948D01*
X25117Y805537D01*
X24375Y806180D01*
X23680Y806875D01*
X23037Y807617D01*
X22448Y808403D01*
X21917Y809229D01*
X21447Y810091D01*
X21039Y810985D01*
X20695Y811905D01*
X20419Y812847D01*
X20210Y813807D01*
X20070Y814779D01*
X20000Y815759D01*
X20000Y816741D01*
X20070Y817721D01*
X20210Y818693D01*
X20419Y819653D01*
X20695Y820595D01*
X21039Y821515D01*
X21447Y822409D01*
X21917Y823271D01*
X22448Y824097D01*
X23037Y824883D01*
X23680Y825625D01*
X24375Y826320D01*
X25117Y826963D01*
X25903Y827552D01*
X26729Y828083D01*
X27591Y828553D01*
X28485Y828961D01*
X29405Y829305D01*
X30347Y829581D01*
X31307Y829790D01*
X32279Y829930D01*
X33259Y830000D01*
X34241Y830000D01*
X35221Y829930D01*
X36193Y829790D01*
X37153Y829581D01*
X38095Y829305D01*
X39015Y828961D01*
X39909Y828553D01*
X40771Y828083D01*
X41597Y827552D01*
X42383Y826963D01*
X43125Y826320D01*
X43820Y825625D01*
X44463Y824883D01*
X45052Y824097D01*
X45583Y823271D01*
X46053Y822409D01*
X46461Y821515D01*
X46805Y820595D01*
X47081Y819653D01*
X47290Y818693D01*
X47430Y817721D01*
X47500Y816741D01*
X47500Y815759D01*
X47500Y232009D02*
X47430Y231029D01*
X47290Y230057D01*
X47081Y229097D01*
X46805Y228155D01*
X46461Y227235D01*
X46053Y226341D01*
X45583Y225479D01*
X45052Y224653D01*
X44463Y223867D01*
X43820Y223125D01*
X43125Y222430D01*
X42383Y221787D01*
X41597Y221198D01*
X40771Y220667D01*
X39909Y220197D01*
X39015Y219789D01*
X38095Y219445D01*
X37153Y219169D01*
X36193Y218960D01*
X35221Y218820D01*
X34241Y218750D01*
X33259Y218750D01*
X32279Y218820D01*
X31307Y218960D01*
X30347Y219169D01*
X29405Y219445D01*
X28485Y219789D01*
X27591Y220197D01*
X26729Y220667D01*
X25903Y221198D01*
X25117Y221787D01*
X24375Y222430D01*
X23680Y223125D01*
X23037Y223867D01*
X22448Y224653D01*
X21917Y225479D01*
X21447Y226341D01*
X21039Y227235D01*
X20695Y228155D01*
X20419Y229097D01*
X20210Y230057D01*
X20070Y231029D01*
X20000Y232009D01*
X20000Y232991D01*
X20070Y233971D01*
X20210Y234943D01*
X20419Y235903D01*
X20695Y236845D01*
X21039Y237765D01*
X21447Y238659D01*
X21917Y239521D01*
X22448Y240347D01*
X23037Y241133D01*
X23680Y241875D01*
X24375Y242570D01*
X25117Y243213D01*
X25903Y243802D01*
X26729Y244333D01*
X27591Y244803D01*
X28485Y245211D01*
X29405Y245555D01*
X30347Y245831D01*
X31307Y246040D01*
X32279Y246180D01*
X33259Y246250D01*
X34241Y246250D01*
X35221Y246180D01*
X36193Y246040D01*
X37153Y245831D01*
X38095Y245555D01*
X39015Y245211D01*
X39909Y244803D01*
X40771Y244333D01*
X41597Y243802D01*
X42383Y243213D01*
X43125Y242570D01*
X43820Y241875D01*
X44463Y241133D01*
X45052Y240347D01*
X45583Y239521D01*
X46053Y238659D01*
X46461Y237765D01*
X46805Y236845D01*
X47081Y235903D01*
X47290Y234943D01*
X47430Y233971D01*
X47500Y232991D01*
X47500Y232009D01*
X540000Y232009D02*
X539930Y231029D01*
X539790Y230057D01*
X539581Y229097D01*
X539305Y228155D01*
X538961Y227235D01*
X538553Y226341D01*
X538083Y225479D01*
X537552Y224653D01*
X536963Y223867D01*
X536320Y223125D01*
X535625Y222430D01*
X534883Y221787D01*
X534097Y221198D01*
X533271Y220667D01*
X532409Y220197D01*
X531515Y219789D01*
X530595Y219445D01*
X529653Y219169D01*
X528693Y218960D01*
X527721Y218820D01*
X526741Y218750D01*
X525759Y218750D01*
X524779Y218820D01*
X523807Y218960D01*
X522847Y219169D01*
X521905Y219445D01*
X520985Y219789D01*
X520091Y220197D01*
X519229Y220667D01*
X518403Y221198D01*
X517617Y221787D01*
X516875Y222430D01*
X516180Y223125D01*
X515537Y223867D01*
X514948Y224653D01*
X514417Y225479D01*
X513947Y226341D01*
X513539Y227235D01*
X513195Y228155D01*
X512919Y229097D01*
X512710Y230057D01*
X512570Y231029D01*
X512500Y232009D01*
X512500Y232991D01*
X512570Y233971D01*
X512710Y234943D01*
X512919Y235903D01*
X513195Y236845D01*
X513539Y237765D01*
X513947Y238659D01*
X514417Y239521D01*
X514948Y240347D01*
X515537Y241133D01*
X516180Y241875D01*
X516875Y242570D01*
X517617Y243213D01*
X518403Y243802D01*
X519229Y244333D01*
X520091Y244803D01*
X520985Y245211D01*
X521905Y245555D01*
X522847Y245831D01*
X523807Y246040D01*
X524779Y246180D01*
X525759Y246250D01*
X526741Y246250D01*
X527721Y246180D01*
X528693Y246040D01*
X529653Y245831D01*
X530595Y245555D01*
X531515Y245211D01*
X532409Y244803D01*
X533271Y244333D01*
X534097Y243802D01*
X534883Y243213D01*
X535625Y242570D01*
X536320Y241875D01*
X536963Y241133D01*
X537552Y240347D01*
X538083Y239521D01*
X538553Y238659D01*
X538961Y237765D01*
X539305Y236845D01*
X539581Y235903D01*
X539790Y234943D01*
X539930Y233971D01*
X540000Y232991D01*
X540000Y232009D01*
M02*
