G04 EAGLE Gerber RS-274X export*
G75*
%MOMM*%
%FSLAX34Y34*%
%LPD*%
%INSoldermask Bottom*%
%IPPOS*%
%AMOC8*
5,1,8,0,0,1.08239X$1,22.5*%
G01*
%ADD10C,2.953200*%
%ADD11C,2.438400*%
%ADD12C,2.133600*%
%ADD13P,2.529329X8X292.500000*%
%ADD14P,2.529329X8X22.500000*%
%ADD15P,2.529329X8X112.500000*%
%ADD16P,2.529329X8X202.500000*%
%ADD17C,2.703200*%
%ADD18P,2.309387X8X292.500000*%
%ADD19C,2.641600*%
%ADD20C,1.315200*%


D10*
X526250Y816250D03*
X33750Y816250D03*
X33750Y232500D03*
X526250Y232500D03*
D11*
X290000Y225200D03*
X290000Y326800D03*
D12*
X253552Y468100D02*
X234248Y468100D01*
X234248Y493500D02*
X253552Y493500D01*
X253552Y620500D02*
X234248Y620500D01*
X177352Y620500D02*
X158048Y620500D01*
X234248Y518900D02*
X253552Y518900D01*
X253552Y544300D02*
X234248Y544300D01*
X234248Y595100D02*
X253552Y595100D01*
X253552Y569700D02*
X234248Y569700D01*
X177352Y595100D02*
X158048Y595100D01*
X158048Y569700D02*
X177352Y569700D01*
X177352Y544300D02*
X158048Y544300D01*
X158048Y518900D02*
X177352Y518900D01*
X177352Y493500D02*
X158048Y493500D01*
X158048Y468100D02*
X177352Y468100D01*
X233248Y232500D02*
X252552Y232500D01*
X252552Y257900D02*
X233248Y257900D01*
X233248Y384900D02*
X252552Y384900D01*
X176352Y384900D02*
X157048Y384900D01*
X233248Y283300D02*
X252552Y283300D01*
X252552Y308700D02*
X233248Y308700D01*
X233248Y359500D02*
X252552Y359500D01*
X252552Y334100D02*
X233248Y334100D01*
X176352Y359500D02*
X157048Y359500D01*
X157048Y334100D02*
X176352Y334100D01*
X176352Y308700D02*
X157048Y308700D01*
X157048Y283300D02*
X176352Y283300D01*
X176352Y257900D02*
X157048Y257900D01*
X157048Y232500D02*
X176352Y232500D01*
D13*
X531900Y763800D03*
X531900Y738400D03*
X531900Y713000D03*
X531900Y687600D03*
X531900Y662200D03*
X531900Y636800D03*
X531900Y611400D03*
X531900Y586000D03*
X531900Y560600D03*
X531900Y535200D03*
X531900Y509800D03*
X531900Y484400D03*
X531900Y459000D03*
X531900Y433600D03*
X531900Y408200D03*
X531900Y382800D03*
X531900Y357400D03*
X531900Y332000D03*
X531900Y306600D03*
X506500Y763800D03*
X506500Y738400D03*
X506500Y713000D03*
X506500Y687600D03*
X506500Y662200D03*
X506500Y636800D03*
X506500Y611400D03*
X506500Y586000D03*
X506500Y560600D03*
X506500Y535200D03*
X506500Y509800D03*
X506500Y484400D03*
X506500Y459000D03*
X506500Y433600D03*
X506500Y408200D03*
X506500Y382800D03*
X506500Y357400D03*
X506500Y332000D03*
X506500Y306600D03*
X531900Y281200D03*
X506500Y281200D03*
D14*
X313100Y544890D03*
D15*
X287540Y570290D03*
D16*
X313100Y644980D03*
D17*
X401000Y410900D03*
X341000Y390900D03*
X461000Y390900D03*
X463000Y268900D03*
X341000Y268900D03*
D18*
X447472Y534516D03*
X466522Y521816D03*
X447472Y509116D03*
D12*
X113800Y733768D02*
X113800Y753072D01*
X139200Y753072D02*
X139200Y733768D01*
X240800Y809968D02*
X240800Y829272D01*
X215400Y829272D02*
X215400Y809968D01*
X164600Y753072D02*
X164600Y733768D01*
X190000Y733768D02*
X190000Y753072D01*
X240800Y753072D02*
X240800Y733768D01*
X215400Y733768D02*
X215400Y753072D01*
X190000Y809968D02*
X190000Y829272D01*
X164600Y829272D02*
X164600Y809968D01*
X139200Y809968D02*
X139200Y829272D01*
X113800Y829272D02*
X113800Y809968D01*
D19*
X60452Y470116D02*
X36068Y470116D01*
X36068Y520408D02*
X60452Y520408D01*
X60452Y570192D02*
X36068Y570192D01*
X36068Y620484D02*
X60452Y620484D01*
D14*
X287540Y544890D03*
D15*
X288020Y645540D03*
D14*
X287540Y620580D03*
D20*
X401320Y523240D03*
X421640Y668020D03*
X111760Y441960D03*
X129540Y548640D03*
X309880Y421640D03*
X375920Y523240D03*
X406400Y571500D03*
X215900Y556260D03*
X325120Y497840D03*
X287020Y594360D03*
X91440Y589280D03*
X27940Y388620D03*
X93980Y528320D03*
X27940Y416560D03*
X81280Y403860D03*
X127000Y629920D03*
M02*
