M48
;GenerationSoftware,Autodesk,EAGLE,9.2.2*%
;CreationDate,2019-01-29T14:25:31Z*%
FMAT,2
ICI,OFF
METRIC,TZ,000.000
T7C0.350
T6C0.813
T5C1.016
T4C1.118
T3C1.300
T2C1.321
T1C2.750
%
G90
M71
T1
X52625Y81625
X3375Y81625
X3375Y23250
X52625Y23250
T2
X4826Y62048
X4826Y57019
X4826Y52041
X4826Y47012
T3
X34100Y39090
X34100Y26890
X40100Y41090
X46300Y26890
X46100Y39090
T4
X29000Y22520
X29000Y32680
T5
X53190Y48440
X53190Y45900
X53190Y43360
X53190Y40820
X53190Y38280
X53190Y35740
X53190Y33200
X53190Y30660
X50650Y76380
X50650Y73840
X50650Y71300
X50650Y68760
X50650Y66220
X50650Y63680
X50650Y58600
X50650Y61140
X50650Y56060
X50650Y53520
X50650Y50980
X50650Y48440
X50650Y45900
X50650Y43360
X50650Y40820
X50650Y38280
X50650Y35740
X50650Y33200
X50650Y30660
X53190Y28120
X50650Y28120
X31310Y54489
X28754Y57029
X31310Y64498
X28754Y54489
X28802Y64554
X53190Y50980
X53190Y76380
X53190Y73840
X53190Y71300
X53190Y68760
X53190Y66220
X53190Y63680
X53190Y61140
X53190Y58600
X53190Y56060
X53190Y53520
X28754Y62058
T6
X16770Y59510
X16460Y74342
X19000Y74342
X24080Y74342
X21540Y74342
X19000Y81962
X16460Y81962
X24290Y23250
X13920Y81962
X24290Y33410
X24290Y35950
X24290Y30870
X24290Y28330
X16670Y33410
X16670Y23250
X24390Y46810
X24390Y49350
X24390Y62050
X16770Y62050
X24390Y51890
X24390Y54430
X24390Y59510
X24390Y56970
X21540Y81962
X16770Y56970
X16770Y54430
X16770Y51890
X16770Y49350
X16770Y46810
X11380Y81962
X24290Y25790
X24290Y38490
X16670Y38490
X16670Y25790
X16670Y28330
X16670Y30870
X16670Y35950
X44747Y53452
X46652Y52182
X44747Y50912
X11380Y74342
X13920Y74342
X24080Y81962
T7
X42164Y66802
X11176Y44196
X12954Y54864
X30988Y42164
X37592Y52324
X40640Y57150
X32512Y49784
X28702Y59436
X9144Y58928
X2794Y38862
X9398Y52832
X2794Y41656
X8128Y40386
X12700Y62992
X21590Y55626
X40132Y52324
M30